<?xml version="1.0" encoding="UTF-8" standalone="no"?>
<!DOCTYPE svg PUBLIC "-//W3C//DTD SVG 1.1//EN"
 "http://www.w3.org/Graphics/SVG/1.1/DTD/svg11.dtd">
<!-- Generated by graphviz version 10.0.1 (20240210.2158)
 -->
<!-- Pages: 1 -->
<svg width="230pt" height="332pt"
 viewBox="0.00 0.00 230.25 332.00" xmlns="http://www.w3.org/2000/svg" xmlns:xlink="http://www.w3.org/1999/xlink">
<g id="graph0" class="graph" transform="scale(1 1) rotate(0) translate(4 328)">
<polygon fill="white" stroke="none" points="-4,4 -4,-328 226.25,-328 226.25,4 -4,4"/>
<!-- 5206393652163477257 -->
<g id="node1" class="node">
<title>5206393652163477257</title>
<polygon fill="none" stroke="black" points="208.75,-324 13.5,-324 13.5,-288 208.75,-288 208.75,-324"/>
<text text-anchor="middle" x="111.12" y="-299" font-family="Helvetica,sans-Serif" font-size="20.00">Sub(CumSum, 100)</text>
</g>
<!-- 1056177023821691836 -->
<g id="node2" class="node">
<title>1056177023821691836</title>
<polygon fill="none" stroke="black" points="212.88,-252 9.38,-252 9.38,-216 212.88,-216 212.88,-252"/>
<text text-anchor="middle" x="111.12" y="-227" font-family="Helvetica,sans-Serif" font-size="20.00">CumSum(Projection)</text>
</g>
<!-- 1056177023821691836&#45;&gt;5206393652163477257 -->
<g id="edge1" class="edge">
<title>1056177023821691836&#45;&gt;5206393652163477257</title>
<path fill="none" stroke="black" d="M111.12,-252.3C111.12,-259.59 111.12,-268.27 111.12,-276.46"/>
<polygon fill="black" stroke="black" points="107.63,-276.38 111.13,-286.38 114.63,-276.38 107.63,-276.38"/>
</g>
<!-- &#45;3022027469701445711 -->
<g id="node3" class="node">
<title>&#45;3022027469701445711</title>
<polygon fill="none" stroke="black" points="221.12,-180 1.12,-180 1.12,-144 221.12,-144 221.12,-180"/>
<text text-anchor="middle" x="111.12" y="-155" font-family="Helvetica,sans-Serif" font-size="20.00">Projection(LocSlice, a)</text>
</g>
<!-- &#45;3022027469701445711&#45;&gt;1056177023821691836 -->
<g id="edge2" class="edge">
<title>&#45;3022027469701445711&#45;&gt;1056177023821691836</title>
<path fill="none" stroke="black" d="M111.12,-180.3C111.12,-187.59 111.12,-196.27 111.12,-204.46"/>
<polygon fill="black" stroke="black" points="107.63,-204.38 111.13,-214.38 114.63,-204.38 107.63,-204.38"/>
</g>
<!-- &#45;5394878734355153483 -->
<g id="node4" class="node">
<title>&#45;5394878734355153483</title>
<polygon fill="none" stroke="black" points="222.25,-108 0,-108 0,-72 222.25,-72 222.25,-108"/>
<text text-anchor="middle" x="111.12" y="-83" font-family="Helvetica,sans-Serif" font-size="20.00">LocSlice(FromPandas)</text>
</g>
<!-- &#45;5394878734355153483&#45;&gt;&#45;3022027469701445711 -->
<g id="edge3" class="edge">
<title>&#45;5394878734355153483&#45;&gt;&#45;3022027469701445711</title>
<path fill="none" stroke="black" d="M111.12,-108.3C111.12,-115.59 111.12,-124.27 111.12,-132.46"/>
<polygon fill="black" stroke="black" points="107.63,-132.38 111.13,-142.38 114.63,-132.38 107.63,-132.38"/>
</g>
<!-- &#45;2801855994942776899 -->
<g id="node5" class="node">
<title>&#45;2801855994942776899</title>
<polygon fill="none" stroke="black" points="176.88,-36 45.38,-36 45.38,0 176.88,0 176.88,-36"/>
<text text-anchor="middle" x="111.12" y="-11" font-family="Helvetica,sans-Serif" font-size="20.00">FromPandas</text>
</g>
<!-- &#45;2801855994942776899&#45;&gt;&#45;5394878734355153483 -->
<g id="edge4" class="edge">
<title>&#45;2801855994942776899&#45;&gt;&#45;5394878734355153483</title>
<path fill="none" stroke="black" d="M111.12,-36.3C111.12,-43.59 111.12,-52.27 111.12,-60.46"/>
<polygon fill="black" stroke="black" points="107.63,-60.38 111.13,-70.38 114.63,-60.38 107.63,-60.38"/>
</g>
</g>
</svg>
